<svg width="15" height="15" viewBox="0 0 15 15" fill="none" xmlns="http://www.w3.org/2000/svg">
<path d="M9.19187 14.8106L9.19187 7.13648C9.19187 6.96759 9.38317 6.88301 9.4952 7.00253L12.6271 10.3439C12.6965 10.4179 12.809 10.4179 12.8782 10.3439L14.948 8.13564C15.0174 8.06159 15.0174 7.94152 14.948 7.86775L7.62555 0.0555322C7.55615 -0.0185107 7.4436 -0.0185107 7.37446 0.0555322L0.0520504 7.86775C-0.0173501 7.94179 -0.0173501 8.06187 0.0520504 8.13564L2.12185 10.3439C2.19125 10.4179 2.3038 10.4179 2.37294 10.3439L5.5048 7.00253C5.61657 6.88329 5.80814 6.96759 5.80814 7.13647L5.80814 14.8106C5.80814 14.9151 5.88767 15 5.98567 15H9.01408C9.11207 15 9.19187 14.9151 9.19187 14.8106Z" fill="#FF0000"/>
</svg>
